<svg width="205" height="70" viewBox="0 0 205 70" fill="none" xmlns="http://www.w3.org/2000/svg">
<circle cx="34.5" cy="34.5" r="31" stroke="#FA9B2F" stroke-width="7"/>
<path d="M43.8906 24.2344C43.4531 21.9531 42.6094 20.2344 41.3594 19.0781C40.1094 17.8906 38.3594 17.1719 36.1094 16.9219V30.0938C37.7031 31.0312 39.0156 31.8281 40.0469 32.4844C41.1094 33.1406 41.9688 33.7188 42.625 34.2188C43.3125 34.7188 43.8594 35.1875 44.2656 35.625C44.6719 36.0625 45.0469 36.5625 45.3906 37.125C46.1094 38.2812 46.4688 39.875 46.4688 41.9062C46.4688 43.2188 46.2188 44.4062 45.7188 45.4688C45.25 46.5312 44.5625 47.4375 43.6562 48.1875C43.1875 48.5938 42.7031 48.9375 42.2031 49.2188C41.7344 49.5 41.2188 49.75 40.6562 49.9688C40.0938 50.1562 39.4375 50.3438 38.6875 50.5312C37.9688 50.6875 37.1094 50.8438 36.1094 51V55.6875H34.2812V51C33.1875 50.9688 32.2031 50.9062 31.3281 50.8125C30.4531 50.6875 29.625 50.5312 28.8438 50.3438C28.0938 50.125 27.3438 49.8594 26.5938 49.5469C25.875 49.2031 25.125 48.7812 24.3438 48.2812V41.2969H25.1406C25.7656 44.1406 26.8125 46.2188 28.2812 47.5312C29.75 48.8125 31.75 49.4844 34.2812 49.5469V34.4062C32.4375 33.3438 30.9062 32.3906 29.6875 31.5469C28.4688 30.6719 27.4844 29.8281 26.7344 29.0156C26.0156 28.2031 25.5 27.3594 25.1875 26.4844C24.9062 25.6094 24.7656 24.6406 24.7656 23.5781C24.7656 22.4219 25.0156 21.3438 25.5156 20.3438C26.0469 19.3438 26.7656 18.4844 27.6719 17.7656C28.1094 17.3906 28.5469 17.0781 28.9844 16.8281C29.4219 16.5781 29.8906 16.375 30.3906 16.2188C30.8906 16.0312 31.4531 15.875 32.0781 15.75C32.7031 15.625 33.4375 15.5156 34.2812 15.4219V12.0938H36.1094V15.4219C38.3594 15.7344 40.125 16.0938 41.4062 16.5C42.7188 16.9062 43.8281 17.5156 44.7344 18.3281V24.2344H43.8906ZM34.2344 16.9219C30.5781 17.6719 28.75 19.5 28.75 22.4062C28.75 23.0312 28.8281 23.6094 28.9844 24.1406C29.1406 24.6406 29.4062 25.1406 29.7812 25.6406C30.1875 26.1406 30.75 26.6719 31.4688 27.2344C32.1875 27.7969 33.1094 28.4531 34.2344 29.2031V16.9219ZM36.1094 49.5469C38.1719 49.1094 39.7031 48.3906 40.7031 47.3906C41.7031 46.3906 42.2031 45 42.2031 43.2188C42.2031 42.375 42.1094 41.6406 41.9219 41.0156C41.7656 40.3906 41.4531 39.7812 40.9844 39.1875C40.5469 38.5938 39.9375 38 39.1562 37.4062C38.375 36.8125 37.3594 36.125 36.1094 35.3438V49.5469Z" fill="#529DF2"/>
<path d="M79.328 7.864H93.056V10.84H82.432V18.232H91.744V21.176H82.432V31H79.328V7.864ZM96.8733 17.752H99.8493V31H96.8733V17.752ZM96.6493 12.952C96.6493 12.4827 96.8306 12.088 97.1933 11.768C97.5773 11.448 97.9933 11.288 98.4413 11.288C98.8893 11.288 99.2839 11.448 99.6253 11.768C99.9879 12.088 100.169 12.4827 100.169 12.952C100.169 13.4427 99.9879 13.848 99.6253 14.168C99.2839 14.4667 98.8893 14.616 98.4413 14.616C97.9933 14.616 97.5773 14.456 97.1933 14.136C96.8306 13.816 96.6493 13.4213 96.6493 12.952ZM107.654 17.752L107.91 20.984L107.782 20.472C108.209 19.4907 108.902 18.712 109.862 18.136C110.822 17.5387 111.932 17.24 113.19 17.24C114.449 17.24 115.473 17.6133 116.262 18.36C117.073 19.0853 117.489 20.0347 117.51 21.208V31H114.502V22.264C114.481 21.5387 114.268 20.952 113.862 20.504C113.478 20.0347 112.87 19.8 112.038 19.8C111.27 19.8 110.577 20.0133 109.958 20.44C109.34 20.8667 108.849 21.4533 108.486 22.2C108.145 22.9467 107.974 23.8107 107.974 24.792V31H104.998V17.752H107.654ZM128.19 31.32C126.952 31.32 125.822 31.0533 124.798 30.52C123.795 29.9867 122.995 29.208 122.398 28.184C121.822 27.1387 121.534 25.8693 121.534 24.376C121.534 22.904 121.843 21.6347 122.462 20.568C123.08 19.48 123.902 18.648 124.926 18.072C125.971 17.496 127.112 17.208 128.35 17.208C129.587 17.208 130.632 17.496 131.486 18.072C132.339 18.6267 132.99 19.288 133.438 20.056L133.246 20.568L133.534 17.752H136.286V31H133.31V27.544L133.63 28.312C133.544 28.5253 133.352 28.8027 133.054 29.144C132.776 29.464 132.392 29.7947 131.902 30.136C131.432 30.4773 130.888 30.7653 130.27 31C129.651 31.2133 128.958 31.32 128.19 31.32ZM128.99 28.856C129.736 28.856 130.408 28.7173 131.006 28.44C131.603 28.1627 132.094 27.7787 132.478 27.288C132.883 26.776 133.16 26.168 133.31 25.464V22.872C133.139 22.232 132.84 21.6773 132.414 21.208C131.987 20.7173 131.475 20.344 130.878 20.088C130.28 19.8107 129.619 19.672 128.894 19.672C128.104 19.672 127.379 19.864 126.718 20.248C126.056 20.632 125.523 21.1653 125.118 21.848C124.734 22.5307 124.542 23.3307 124.542 24.248C124.542 25.1013 124.744 25.88 125.15 26.584C125.555 27.288 126.099 27.8427 126.782 28.248C127.464 28.6533 128.2 28.856 128.99 28.856ZM144.092 17.752L144.348 20.984L144.22 20.472C144.646 19.4907 145.34 18.712 146.3 18.136C147.26 17.5387 148.369 17.24 149.628 17.24C150.886 17.24 151.91 17.6133 152.7 18.36C153.51 19.0853 153.926 20.0347 153.948 21.208V31H150.94V22.264C150.918 21.5387 150.705 20.952 150.3 20.504C149.916 20.0347 149.308 19.8 148.476 19.8C147.708 19.8 147.014 20.0133 146.396 20.44C145.777 20.8667 145.286 21.4533 144.924 22.2C144.582 22.9467 144.412 23.8107 144.412 24.792V31H141.436V17.752H144.092ZM169.875 29.784C169.278 30.2533 168.563 30.6267 167.731 30.904C166.899 31.1813 166.067 31.32 165.235 31.32C163.785 31.32 162.515 31.032 161.427 30.456C160.339 29.88 159.486 29.08 158.867 28.056C158.27 27.0107 157.971 25.784 157.971 24.376C157.971 22.968 158.291 21.7413 158.931 20.696C159.593 19.6507 160.446 18.8507 161.491 18.296C162.558 17.72 163.699 17.432 164.915 17.432C165.982 17.432 166.931 17.5813 167.763 17.88C168.617 18.1787 169.342 18.584 169.939 19.096L168.467 21.016C168.083 20.7173 167.614 20.4507 167.059 20.216C166.505 19.9813 165.875 19.864 165.171 19.864C164.403 19.864 163.689 20.0667 163.027 20.472C162.387 20.856 161.875 21.3893 161.491 22.072C161.129 22.7547 160.947 23.5227 160.947 24.376C160.947 25.1867 161.139 25.944 161.523 26.648C161.907 27.3307 162.441 27.8747 163.123 28.28C163.806 28.664 164.585 28.856 165.459 28.856C166.035 28.856 166.558 28.7707 167.027 28.6C167.518 28.4293 167.955 28.1947 168.339 27.896L169.875 29.784ZM173.717 17.752H176.693V31H173.717V17.752ZM173.493 12.952C173.493 12.4827 173.674 12.088 174.037 11.768C174.421 11.448 174.837 11.288 175.285 11.288C175.733 11.288 176.128 11.448 176.469 11.768C176.832 12.088 177.013 12.4827 177.013 12.952C177.013 13.4427 176.832 13.848 176.469 14.168C176.128 14.4667 175.733 14.616 175.285 14.616C174.837 14.616 174.421 14.456 174.037 14.136C173.674 13.816 173.493 13.4213 173.493 12.952ZM187.346 31.32C186.109 31.32 184.978 31.0533 183.954 30.52C182.951 29.9867 182.151 29.208 181.554 28.184C180.978 27.1387 180.69 25.8693 180.69 24.376C180.69 22.904 180.999 21.6347 181.618 20.568C182.237 19.48 183.058 18.648 184.082 18.072C185.127 17.496 186.269 17.208 187.506 17.208C188.743 17.208 189.789 17.496 190.642 18.072C191.495 18.6267 192.146 19.288 192.594 20.056L192.402 20.568L192.69 17.752H195.442V31H192.466V27.544L192.786 28.312C192.701 28.5253 192.509 28.8027 192.21 29.144C191.933 29.464 191.549 29.7947 191.058 30.136C190.589 30.4773 190.045 30.7653 189.426 31C188.807 31.2133 188.114 31.32 187.346 31.32ZM188.146 28.856C188.893 28.856 189.565 28.7173 190.162 28.44C190.759 28.1627 191.25 27.7787 191.634 27.288C192.039 26.776 192.317 26.168 192.466 25.464V22.872C192.295 22.232 191.997 21.6773 191.57 21.208C191.143 20.7173 190.631 20.344 190.034 20.088C189.437 19.8107 188.775 19.672 188.05 19.672C187.261 19.672 186.535 19.864 185.874 20.248C185.213 20.632 184.679 21.1653 184.274 21.848C183.89 22.5307 183.698 23.3307 183.698 24.248C183.698 25.1013 183.901 25.88 184.306 26.584C184.711 27.288 185.255 27.8427 185.938 28.248C186.621 28.6533 187.357 28.856 188.146 28.856ZM200.592 6.232H203.568V31H200.592V6.232ZM81.248 49.752L81.504 52.728L81.376 52.472C81.8667 51.4693 82.56 50.68 83.456 50.104C84.3733 49.528 85.4187 49.24 86.592 49.24C87.3387 49.24 88 49.3573 88.576 49.592C89.152 49.8267 89.6213 50.168 89.984 50.616C90.368 51.0427 90.6133 51.576 90.72 52.216L90.56 52.312C91.072 51.352 91.776 50.6053 92.672 50.072C93.5893 49.5173 94.5493 49.24 95.552 49.24C96.8533 49.24 97.8773 49.6133 98.624 50.36C99.392 51.0853 99.7867 52.0347 99.808 53.208V63H96.832V54.264C96.8107 53.5813 96.64 53.016 96.32 52.568C96.0213 52.0987 95.488 51.8427 94.72 51.8C93.952 51.8 93.2587 52.0347 92.64 52.504C92.0427 52.9733 91.5733 53.5813 91.232 54.328C90.8907 55.0533 90.7093 55.8427 90.688 56.696V63H87.712V54.264C87.6907 53.5813 87.5093 53.016 87.168 52.568C86.848 52.0987 86.304 51.8427 85.536 51.8C84.7467 51.8 84.0533 52.0347 83.456 52.504C82.8587 52.9733 82.3893 53.5813 82.048 54.328C81.728 55.0747 81.568 55.8747 81.568 56.728V63H78.592V49.752H81.248ZM110.502 63.32C109.265 63.32 108.134 63.0533 107.11 62.52C106.108 61.9867 105.308 61.208 104.71 60.184C104.134 59.1387 103.846 57.8693 103.846 56.376C103.846 54.904 104.156 53.6347 104.774 52.568C105.393 51.48 106.214 50.648 107.238 50.072C108.284 49.496 109.425 49.208 110.662 49.208C111.9 49.208 112.945 49.496 113.798 50.072C114.652 50.6267 115.302 51.288 115.75 52.056L115.558 52.568L115.846 49.752H118.598V63H115.622V59.544L115.942 60.312C115.857 60.5253 115.665 60.8027 115.366 61.144C115.089 61.464 114.705 61.7947 114.214 62.136C113.745 62.4773 113.201 62.7653 112.582 63C111.964 63.2133 111.27 63.32 110.502 63.32ZM111.302 60.856C112.049 60.856 112.721 60.7173 113.318 60.44C113.916 60.1627 114.406 59.7787 114.79 59.288C115.196 58.776 115.473 58.168 115.622 57.464V54.872C115.452 54.232 115.153 53.6773 114.726 53.208C114.3 52.7173 113.788 52.344 113.19 52.088C112.593 51.8107 111.932 51.672 111.206 51.672C110.417 51.672 109.692 51.864 109.03 52.248C108.369 52.632 107.836 53.1653 107.43 53.848C107.046 54.5307 106.854 55.3307 106.854 56.248C106.854 57.1013 107.057 57.88 107.462 58.584C107.868 59.288 108.412 59.8427 109.094 60.248C109.777 60.6533 110.513 60.856 111.302 60.856ZM126.404 49.752L126.66 52.984L126.532 52.472C126.959 51.4907 127.652 50.712 128.612 50.136C129.572 49.5387 130.682 49.24 131.94 49.24C133.199 49.24 134.223 49.6133 135.012 50.36C135.823 51.0853 136.239 52.0347 136.26 53.208V63H133.252V54.264C133.231 53.5387 133.018 52.952 132.612 52.504C132.228 52.0347 131.62 51.8 130.788 51.8C130.02 51.8 129.327 52.0133 128.708 52.44C128.09 52.8667 127.599 53.4533 127.236 54.2C126.895 54.9467 126.724 55.8107 126.724 56.792V63H123.748V49.752H126.404ZM146.94 63.32C145.702 63.32 144.572 63.0533 143.548 62.52C142.545 61.9867 141.745 61.208 141.148 60.184C140.572 59.1387 140.284 57.8693 140.284 56.376C140.284 54.904 140.593 53.6347 141.212 52.568C141.83 51.48 142.652 50.648 143.676 50.072C144.721 49.496 145.862 49.208 147.1 49.208C148.337 49.208 149.382 49.496 150.236 50.072C151.089 50.6267 151.74 51.288 152.188 52.056L151.996 52.568L152.284 49.752H155.036V63H152.06V59.544L152.38 60.312C152.294 60.5253 152.102 60.8027 151.804 61.144C151.526 61.464 151.142 61.7947 150.652 62.136C150.182 62.4773 149.638 62.7653 149.02 63C148.401 63.2133 147.708 63.32 146.94 63.32ZM147.74 60.856C148.486 60.856 149.158 60.7173 149.756 60.44C150.353 60.1627 150.844 59.7787 151.228 59.288C151.633 58.776 151.91 58.168 152.06 57.464V54.872C151.889 54.232 151.59 53.6773 151.164 53.208C150.737 52.7173 150.225 52.344 149.628 52.088C149.03 51.8107 148.369 51.672 147.644 51.672C146.854 51.672 146.129 51.864 145.468 52.248C144.806 52.632 144.273 53.1653 143.868 53.848C143.484 54.5307 143.292 55.3307 143.292 56.248C143.292 57.1013 143.494 57.88 143.9 58.584C144.305 59.288 144.849 59.8427 145.532 60.248C146.214 60.6533 146.95 60.856 147.74 60.856ZM166.554 69.56C165.572 69.56 164.708 69.4427 163.962 69.208C163.215 68.9947 162.532 68.6853 161.914 68.28C161.316 67.8747 160.74 67.416 160.186 66.904L161.914 64.888C162.618 65.5493 163.332 66.0613 164.058 66.424C164.783 66.7867 165.594 66.968 166.49 66.968C167.492 66.968 168.335 66.7973 169.018 66.456C169.722 66.136 170.255 65.6773 170.618 65.08C170.98 64.504 171.162 63.832 171.162 63.064L171.194 59.48L171.45 60.056C171.066 60.9733 170.372 61.752 169.37 62.392C168.367 63.0107 167.151 63.32 165.722 63.32C164.506 63.32 163.386 63.0107 162.362 62.392C161.359 61.7733 160.548 60.9413 159.93 59.896C159.332 58.8293 159.034 57.6347 159.034 56.312C159.034 54.9253 159.354 53.7093 159.994 52.664C160.634 51.5973 161.476 50.7547 162.522 50.136C163.567 49.5173 164.708 49.208 165.946 49.208C167.119 49.208 168.186 49.4533 169.146 49.944C170.127 50.4133 170.842 51.0213 171.29 51.768L171.13 52.312L171.45 49.752H174.17V63.096C174.17 64.2907 173.86 65.3787 173.242 66.36C172.623 67.3413 171.748 68.12 170.618 68.696C169.487 69.272 168.132 69.56 166.554 69.56ZM162.01 56.248C162.01 57.1013 162.212 57.88 162.618 58.584C163.023 59.288 163.567 59.8427 164.25 60.248C164.954 60.6533 165.732 60.856 166.586 60.856C167.375 60.856 168.079 60.7173 168.698 60.44C169.338 60.1413 169.871 59.7467 170.298 59.256C170.724 58.744 171.023 58.1573 171.194 57.496V54.872C171.002 54.232 170.682 53.6773 170.234 53.208C169.786 52.7173 169.252 52.344 168.634 52.088C168.015 51.8107 167.332 51.672 166.586 51.672C165.732 51.672 164.954 51.864 164.25 52.248C163.567 52.632 163.023 53.176 162.618 53.88C162.212 54.5627 162.01 55.352 162.01 56.248ZM185.455 63.32C183.94 63.32 182.639 63.0213 181.551 62.424C180.463 61.8053 179.62 60.9733 179.023 59.928C178.447 58.8613 178.159 57.6453 178.159 56.28C178.159 54.9787 178.489 53.7947 179.151 52.728C179.812 51.6613 180.697 50.808 181.807 50.168C182.916 49.528 184.153 49.208 185.519 49.208C187.268 49.208 188.719 49.72 189.871 50.744C191.023 51.768 191.801 53.176 192.207 54.968L181.295 58.808L180.591 57.048L189.551 53.784L188.911 54.2C188.655 53.496 188.228 52.888 187.631 52.376C187.033 51.8427 186.255 51.576 185.295 51.576C184.484 51.576 183.759 51.7787 183.119 52.184C182.479 52.568 181.977 53.1013 181.615 53.784C181.252 54.4667 181.071 55.2453 181.071 56.12C181.071 57.0373 181.263 57.848 181.647 58.552C182.031 59.2347 182.553 59.7787 183.215 60.184C183.897 60.568 184.665 60.76 185.519 60.76C186.095 60.76 186.649 60.6533 187.183 60.44C187.737 60.2267 188.249 59.9493 188.719 59.608L190.095 61.816C189.433 62.264 188.687 62.6267 187.855 62.904C187.044 63.1813 186.244 63.32 185.455 63.32ZM198.592 49.752L198.88 53.592L198.72 53.08C199.061 52.2693 199.552 51.5867 200.192 51.032C200.853 50.456 201.536 50.0187 202.24 49.72C202.965 49.4 203.594 49.24 204.128 49.24L203.968 52.184C202.965 52.12 202.08 52.312 201.312 52.76C200.565 53.208 199.968 53.8053 199.52 54.552C199.093 55.2987 198.88 56.0987 198.88 56.952V63H195.936V49.752H198.592Z" fill="black"/>
</svg>
